<svg width="83" height="80" viewBox="0 0 83 80" fill="none" xmlns="http://www.w3.org/2000/svg">
<rect x="0.359375" width="40.96" height="79.36" fill="#48BAFF"/>
<rect x="41.3203" width="40.96" height="79.36" fill="#5EC2FE"/>
<path d="M41.3331 43.011V29.3324C40.9453 29.3683 40.562 29.4288 40.172 29.4467H29.004C28.3853 29.4467 27.8832 29.9489 27.8832 30.5675V31.6884H24.5207C23.902 31.6884 23.3999 32.1905 23.3999 32.8092V39.5342C23.3999 40.1529 23.902 40.655 24.5207 40.655H27.8832V41.7758C27.8832 42.3945 28.3853 42.8967 29.004 42.8967H29.6833L34.189 54.9074C34.4647 55.627 35.0812 56.1493 35.8388 56.3017C35.989 56.3331 36.1392 56.3488 36.2872 56.3488C36.8857 56.3488 37.4551 56.1112 37.8631 55.6853L40.5553 53.0155C41.2435 52.3273 41.4071 51.2535 40.9678 50.4219L37.2063 42.8967H40.1832C40.5687 42.9146 40.9498 42.9751 41.3331 43.011Z" fill="white"/>
<path d="M59.0825 21.0225C59.0601 20.9844 59.0399 20.953 59.0107 20.9171C58.8874 20.7602 58.7328 20.6324 58.5422 20.5584C58.5355 20.5562 58.531 20.5472 58.5243 20.545C58.5019 20.5383 58.4817 20.5495 58.4593 20.5427C58.3584 20.5136 58.2575 20.48 58.1455 20.48C58.0692 20.48 58.002 20.5091 57.928 20.5248C57.8854 20.5338 57.8451 20.536 57.8025 20.5495C57.6097 20.6122 57.4438 20.7198 57.3116 20.8678C57.3026 20.8768 57.2891 20.879 57.2802 20.888C53.7854 25.1314 48.9121 27.9693 43.5747 29.0095V43.3359C48.9121 44.376 53.7854 47.2117 57.2802 51.4552C57.2891 51.4664 57.3048 51.4709 57.316 51.4843C57.3945 51.5717 57.4909 51.6412 57.594 51.6995C57.6276 51.7197 57.6545 51.7488 57.6882 51.7645C57.8294 51.825 57.9818 51.8631 58.1455 51.8631C58.2732 51.8631 58.3988 51.8407 58.5243 51.7981C58.531 51.7959 58.5355 51.7869 58.5422 51.7847C58.7328 51.7107 58.8874 51.5852 59.0107 51.426C59.0376 51.3902 59.0578 51.3588 59.0825 51.3207C59.1901 51.1481 59.2663 50.9575 59.2663 50.7423V21.6008C59.2663 21.3856 59.1901 21.1951 59.0825 21.0225Z" fill="white"/>
</svg>
