<svg width="83" height="80" viewBox="0 0 83 80" fill="none" xmlns="http://www.w3.org/2000/svg">
<rect x="0.160645" width="40.96" height="79.36" fill="#48BAFF"/>
<rect x="41.1206" y="6.10352e-05" width="40.96" height="79.36" fill="#5EC2FE"/>
<path d="M41.1211 59.3319C41.9528 59.3319 42.627 58.6577 42.627 57.826C42.627 56.9943 41.9528 56.3201 41.1211 56.3201C40.2894 56.3201 39.6152 56.9943 39.6152 57.826C39.6152 58.6577 40.2894 59.3319 41.1211 59.3319Z" fill="white"/>
<path d="M50.6041 17.9202H31.6375C29.8086 17.9202 28.3208 19.4087 28.3208 21.2369V59.7792C28.3208 61.6081 29.8086 63.0966 31.6375 63.0966H50.6033C52.433 63.0966 53.9208 61.6081 53.9208 59.7799V21.2369C53.9208 19.4087 52.433 17.9202 50.6041 17.9202ZM43.3796 20.179H44.1326C44.5482 20.179 44.8855 20.5156 44.8855 20.9319C44.8855 21.3483 44.5482 21.6849 44.1326 21.6849H43.3796C42.964 21.6849 42.6267 21.3483 42.6267 20.9319C42.6267 20.5156 42.964 20.179 43.3796 20.179ZM38.109 20.179H41.1208C41.5364 20.179 41.8737 20.5156 41.8737 20.9319C41.8737 21.3483 41.5364 21.6849 41.1208 21.6849H38.109C37.6934 21.6849 37.3561 21.3483 37.3561 20.9319C37.3561 20.5156 37.6934 20.179 38.109 20.179ZM41.1208 60.8378C39.4598 60.8378 38.109 59.487 38.109 57.826C38.109 56.1651 39.4598 54.8143 41.1208 54.8143C42.7818 54.8143 44.1326 56.1651 44.1326 57.826C44.1326 59.487 42.7818 60.8378 41.1208 60.8378ZM52.4149 52.5555H29.8267V23.9437H52.4149V52.5555Z" fill="white"/>
</svg>
