<svg width="82" height="80" viewBox="0 0 82 80" fill="none" xmlns="http://www.w3.org/2000/svg">
<rect x="0.0405273" width="40.96" height="79.36" fill="#48BAFF"/>
<rect x="41.0005" y="6.10352e-05" width="40.96" height="79.36" fill="#5EC2FE"/>
<path d="M62.1327 25.6L48.7712 34.0694L34.601 42.24L20.521 37.0101L62.1327 25.6ZM34.9948 50.5117L35.881 42.24L39.5496 47.149L34.9948 50.5117ZM45.6066 55.4922L35.881 42.24L62.1327 25.6L45.6066 55.4922Z" fill="white"/>
<path d="M62.1327 25.6L48.7712 34.0694L34.601 42.24L20.521 37.0101L62.1327 25.6Z" fill="white"/>
<path d="M45.6066 55.4922L35.881 42.24L62.1327 25.6L45.6066 55.4922Z" fill="white"/>
<path d="M34.9948 50.5117L35.881 42.24L39.5496 47.149L34.9948 50.5117Z" fill="white"/>
</svg>
