<svg width="32" height="31" viewBox="0 0 32 31" fill="none" xmlns="http://www.w3.org/2000/svg">
<rect x="0.320312" width="30.72" height="30.72" fill="#16A7F6"/>
<path d="M26.726 21.2664C26.7001 21.2105 26.6759 21.1642 26.6535 21.1271C26.2822 20.4584 25.5727 19.6377 24.5254 18.6646L24.5033 18.6423L24.4922 18.6314L24.481 18.6202H24.4697C23.9944 18.1671 23.6934 17.8624 23.5674 17.7064C23.3367 17.4093 23.2851 17.1085 23.4111 16.8038C23.5002 16.5735 23.8347 16.0873 24.4139 15.3444C24.7186 14.9506 24.9598 14.6351 25.138 14.3974C26.4232 12.6889 26.9803 11.5971 26.8094 11.1217L26.743 11.0106C26.6984 10.9437 26.5833 10.8825 26.3978 10.8267C26.2119 10.771 25.9743 10.7618 25.6845 10.7989L22.4757 10.8211C22.4237 10.8026 22.3495 10.8044 22.2528 10.8267C22.1562 10.849 22.1079 10.8602 22.1079 10.8602L22.0521 10.8881L22.0077 10.9216C21.9706 10.9438 21.9297 10.9828 21.8851 11.0385C21.8408 11.094 21.8036 11.1592 21.774 11.2335C21.4246 12.1322 21.0274 12.9679 20.5817 13.7403C20.3068 14.2009 20.0544 14.6001 19.8239 14.9381C19.5937 15.276 19.4005 15.5249 19.2447 15.6845C19.0886 15.8442 18.9477 15.9722 18.8212 16.0689C18.6949 16.1656 18.5984 16.2064 18.5317 16.1915C18.4647 16.1765 18.4017 16.1617 18.342 16.1469C18.2381 16.08 18.1545 15.989 18.0915 15.8739C18.0282 15.7588 17.9856 15.6139 17.9633 15.4393C17.9411 15.2646 17.928 15.1144 17.9243 14.9881C17.9208 14.8619 17.9224 14.6834 17.9299 14.4532C17.9377 14.2228 17.9411 14.067 17.9411 13.9853C17.9411 13.7029 17.9466 13.3966 17.9577 13.066C17.9689 12.7355 17.978 12.4736 17.9856 12.2807C17.9932 12.0875 17.9967 11.8832 17.9967 11.6678C17.9967 11.4524 17.9836 11.2834 17.9577 11.1608C17.9321 11.0383 17.8928 10.9195 17.841 10.8042C17.7889 10.6891 17.7127 10.6001 17.6126 10.5368C17.5123 10.4737 17.3877 10.4236 17.2394 10.3864C16.8456 10.2973 16.3443 10.2491 15.7351 10.2416C14.3536 10.2267 13.4659 10.316 13.0722 10.5091C12.9162 10.5907 12.7751 10.7022 12.6489 10.8432C12.5151 11.0067 12.4965 11.0959 12.593 11.1106C13.0387 11.1773 13.3543 11.3371 13.54 11.5896L13.6069 11.7234C13.659 11.82 13.711 11.9909 13.763 12.236C13.8149 12.481 13.8485 12.7521 13.8632 13.0491C13.9003 13.5915 13.9003 14.0557 13.8632 14.4419C13.826 14.8282 13.7909 15.129 13.7574 15.3444C13.7239 15.5598 13.6738 15.7344 13.6069 15.868C13.54 16.0017 13.4955 16.0835 13.4732 16.1131C13.4509 16.1428 13.4323 16.1615 13.4176 16.1688C13.321 16.2058 13.2206 16.2246 13.1167 16.2246C13.0126 16.2246 12.8864 16.1726 12.7379 16.0685C12.5894 15.9645 12.4353 15.8216 12.2755 15.6396C12.1158 15.4575 11.9357 15.2031 11.735 14.8763C11.5346 14.5495 11.3266 14.1633 11.1112 13.7177L10.9329 13.3945C10.8215 13.1865 10.6693 12.8838 10.4762 12.4865C10.2829 12.089 10.1121 11.7045 9.96364 11.3331C9.90428 11.1772 9.81511 11.0584 9.69628 10.9767L9.64052 10.9432C9.60344 10.9135 9.54393 10.882 9.46229 10.8484C9.38053 10.8149 9.29523 10.7909 9.20602 10.7761L6.15316 10.7983C5.84119 10.7983 5.62952 10.8689 5.51807 11.0101L5.47346 11.0769C5.45118 11.114 5.43994 11.1734 5.43994 11.2552C5.43994 11.3369 5.46222 11.4372 5.50683 11.556C5.95249 12.6034 6.43714 13.6135 6.96077 14.5866C7.4844 15.5596 7.93943 16.3434 8.32558 16.9373C8.71181 17.5316 9.10549 18.0925 9.50662 18.6197C9.90776 19.1472 10.1733 19.4852 10.3032 19.6336C10.4333 19.7824 10.5354 19.8936 10.6097 19.9679L10.8883 20.2352C11.0666 20.4135 11.3283 20.6271 11.6737 20.8759C12.0192 21.1248 12.4017 21.3699 12.8214 21.6115C13.2411 21.8527 13.7294 22.0495 14.2866 22.2018C14.8437 22.3542 15.3859 22.4153 15.9133 22.3858H17.1946C17.4545 22.3634 17.6514 22.2817 17.7852 22.1406L17.8295 22.0848C17.8593 22.0404 17.8872 21.9716 17.913 21.8789C17.9391 21.786 17.952 21.6838 17.952 21.5725C17.9444 21.2532 17.9687 20.9654 18.0243 20.7091C18.0798 20.453 18.1431 20.2598 18.2139 20.1298C18.2847 19.9998 18.3645 19.8902 18.4534 19.8013C18.5424 19.7122 18.6059 19.6582 18.6431 19.6396C18.6801 19.6209 18.7097 19.6082 18.7319 19.6006C18.9102 19.5412 19.12 19.5988 19.3616 19.7735C19.6031 19.948 19.8295 20.1636 20.0414 20.4197C20.2531 20.6761 20.5074 20.9638 20.8045 21.2831C21.1017 21.6026 21.3617 21.84 21.5844 21.9962L21.8072 22.1299C21.9559 22.2191 22.1491 22.3009 22.3868 22.3751C22.6241 22.4493 22.832 22.4679 23.0106 22.4308L25.8628 22.3863C26.1449 22.3863 26.3644 22.3396 26.5201 22.2469C26.6761 22.1541 26.7688 22.0518 26.7987 21.9405C26.8285 21.8292 26.8301 21.7028 26.8043 21.5615C26.7779 21.4206 26.7519 21.3221 26.726 21.2664Z" fill="white"/>
</svg>
