<svg width="31" height="31" viewBox="0 0 31 31" fill="none" xmlns="http://www.w3.org/2000/svg">
<rect x="-0.000488281" width="30.72" height="30.72" fill="#16A7F6"/>
<path d="M22.0178 14.3358V12.2878H20.9938V14.3358H18.9458V15.3598H20.9938V17.4078H22.0178V15.3598H24.0658V14.3358H22.0178Z" fill="white"/>
<path d="M12.8002 14.336V16.384H15.6971C15.2742 17.5759 14.1355 18.432 12.8002 18.432C11.1065 18.432 9.72818 17.0537 9.72818 15.36C9.72818 13.6663 11.1065 12.288 12.8002 12.288C13.5344 12.288 14.2409 12.5512 14.7898 13.0294L16.1353 11.4852C15.2137 10.6824 14.03 10.24 12.8002 10.24C9.97701 10.24 7.68018 12.5368 7.68018 15.36C7.68018 18.1832 9.97701 20.48 12.8002 20.48C15.6233 20.48 17.9202 18.1832 17.9202 15.36V14.336H12.8002Z" fill="white"/>
</svg>
