<svg width="31" height="31" viewBox="0 0 31 31" fill="none" xmlns="http://www.w3.org/2000/svg">
<rect x="0.160156" width="30.72" height="30.72" fill="#16A7F6"/>
<path d="M20.2548 7.68366L17.7987 7.67993C15.0393 7.67993 13.2561 9.41091 13.2561 12.0901V14.1234H10.7866C10.5732 14.1234 10.4004 14.2871 10.4004 14.489V17.4351C10.4004 17.637 10.5734 17.8005 10.7866 17.8005H13.2561V25.2345C13.2561 25.4364 13.4289 25.5999 13.6423 25.5999H16.8643C17.0777 25.5999 17.2505 25.4362 17.2505 25.2345V17.8005H20.1379C20.3513 17.8005 20.5241 17.637 20.5241 17.4351L20.5253 14.489C20.5253 14.3921 20.4845 14.2992 20.4122 14.2306C20.3399 14.162 20.2414 14.1234 20.1389 14.1234H17.2505V12.3997C17.2505 11.5712 17.4592 11.1507 18.5998 11.1507L20.2544 11.1501C20.4676 11.1501 20.6404 10.9864 20.6404 10.7847V8.04906C20.6404 7.84753 20.4678 7.68403 20.2548 7.68366Z" fill="white"/>
</svg>
