<svg width="32" height="31" viewBox="0 0 32 31" fill="none" xmlns="http://www.w3.org/2000/svg">
<rect x="0.839355" width="30.72" height="30.72" fill="#16A7F6"/>
<path d="M23.7292 7.71936C23.6356 7.66596 23.5205 7.66686 23.4278 7.7217L17.93 10.9727C17.7874 11.057 17.7402 11.241 17.8245 11.3836C17.9088 11.5262 18.0928 11.5735 18.2354 11.4892L22.18 9.15664L14.8326 16.7802L11.1783 15.6622L15.9473 12.8421C16.09 12.7578 16.1372 12.5738 16.0529 12.4312C15.9686 12.2886 15.7846 12.2413 15.642 12.3257L10.2875 15.4919C10.1852 15.5524 10.1282 15.6676 10.1423 15.7856C10.1563 15.9037 10.2387 16.0023 10.3524 16.037L14.7166 17.3722L16.6419 20.8767C16.6439 20.8803 16.646 20.8834 16.6481 20.8861C16.6803 20.9397 16.7284 20.9835 16.7885 21.0087C16.8261 21.0245 16.8656 21.0322 16.9048 21.0322C16.9817 21.0322 17.0574 21.0027 17.1146 20.9468L19.3284 18.7831L23.4927 20.0571C23.5215 20.0659 23.5511 20.0703 23.5805 20.0703C23.644 20.0703 23.7067 20.0501 23.7589 20.0114C23.8354 19.9549 23.8805 19.8654 23.8805 19.7703V7.97995C23.8805 7.87222 23.8227 7.77273 23.7292 7.71936ZM16.6583 17.5571C16.6235 17.6073 16.6049 17.6669 16.6049 17.7279V19.5631L15.2902 17.1701L21.108 11.1336L16.6583 17.5571ZM17.2049 20.0195V18.1335L18.6747 18.5831L17.2049 20.0195ZM23.2805 19.3647L17.3854 17.5612L23.2805 9.0511V19.3647Z" fill="white"/>
<path d="M13.4529 18.1074C13.3358 17.9902 13.1458 17.9902 13.0286 18.1074L10.228 20.908C10.1108 21.0252 10.1108 21.2151 10.228 21.3323C10.2866 21.3909 10.3634 21.4202 10.4402 21.4202C10.5169 21.4202 10.5937 21.3909 10.6523 21.3323L13.4529 18.5317C13.5701 18.4145 13.5701 18.2246 13.4529 18.1074Z" fill="white"/>
<path d="M9.72169 21.8381C9.6045 21.721 9.4146 21.721 9.29741 21.8381L8.6074 22.5281C8.49024 22.6453 8.49024 22.8352 8.6074 22.9524C8.66599 23.011 8.74276 23.0403 8.81953 23.0403C8.8963 23.0403 8.97308 23.0109 9.03167 22.9524L9.72169 22.2624C9.83884 22.1452 9.83884 21.9552 9.72169 21.8381Z" fill="white"/>
<path d="M12.7983 22.5102C12.7426 22.4544 12.6652 22.4224 12.5864 22.4224C12.5072 22.4224 12.4302 22.4544 12.3745 22.5102C12.3187 22.566 12.2866 22.643 12.2866 22.7221C12.2866 22.801 12.3187 22.8783 12.3745 22.9341C12.4302 22.9898 12.5076 23.0219 12.5864 23.0219C12.6652 23.0219 12.7426 22.9898 12.7983 22.9341C12.8541 22.8783 12.8862 22.801 12.8862 22.7221C12.8862 22.643 12.8541 22.566 12.7983 22.5102Z" fill="white"/>
<path d="M15.0302 20.2785C14.9131 20.1614 14.7232 20.1614 14.606 20.2785L13.1225 21.7619C13.0054 21.8791 13.0054 22.069 13.1225 22.1862C13.1811 22.2448 13.2579 22.2741 13.3347 22.2741C13.4114 22.2741 13.4882 22.2448 13.5468 22.1862L15.0302 20.7028C15.1474 20.5857 15.1474 20.3957 15.0302 20.2785Z" fill="white"/>
<path d="M20.1509 20.1643C20.0338 20.0471 19.8439 20.0471 19.7267 20.1643L18.2392 21.6517C18.1221 21.7688 18.1221 21.9588 18.2392 22.076C18.2978 22.1346 18.3746 22.1639 18.4514 22.1639C18.5281 22.1639 18.6049 22.1346 18.6635 22.076L20.1509 20.5886C20.2681 20.4714 20.2681 20.2814 20.1509 20.1643Z" fill="white"/>
<path d="M17.0239 11.769C16.9682 11.7132 16.8908 11.6812 16.812 11.6812C16.7331 11.6812 16.6558 11.7132 16.6 11.769C16.5443 11.8247 16.5122 11.9021 16.5122 11.9812C16.5122 12.0601 16.5443 12.1371 16.6 12.1929C16.6558 12.2489 16.7331 12.2807 16.812 12.2807C16.8908 12.2807 16.9682 12.2489 17.0239 12.1929C17.0796 12.1371 17.1118 12.0601 17.1118 11.9812C17.1118 11.9021 17.0797 11.8247 17.0239 11.769Z" fill="white"/>
</svg>
